<svg width="72" height="50" viewBox="0 0 72 50" fill="none" xmlns="http://www.w3.org/2000/svg">
<path d="M40 26.4705L46 17.647L40 8.82349" stroke="white" stroke-width="2" stroke-linecap="round" stroke-linejoin="round"/>
<path d="M32 8.82349L26 17.647L32 26.4705" stroke="white" stroke-width="2" stroke-linecap="round" stroke-linejoin="round"/>
<path d="M0.036 39L3.012 30.204H4.26L7.236 39H6.072L4.524 34.08C4.212 33.096 3.936 32.136 3.648 31.116H3.6C3.312 32.136 3.036 33.096 2.712 34.08L1.164 39H0.036ZM1.596 36.312V35.436H5.652V36.312H1.596ZM8.40478 39V32.484H9.29278L9.40078 33.432H9.43678C10.0488 32.82 10.7208 32.328 11.6208 32.328C12.9888 32.328 13.6128 33.216 13.6128 34.872V39H12.5088V35.016C12.5088 33.792 12.1368 33.276 11.2728 33.276C10.6128 33.276 10.1448 33.624 9.49678 34.272V39H8.40478ZM15.729 39V32.484H16.821V39H15.729ZM16.281 31.14C15.849 31.14 15.549 30.864 15.549 30.408C15.549 29.988 15.849 29.712 16.281 29.712C16.701 29.712 17.013 29.988 17.013 30.408C17.013 30.864 16.701 31.14 16.281 31.14ZM19.0337 39V32.484H19.9217L20.0297 33.432H20.0657C20.6297 32.82 21.3137 32.328 22.0937 32.328C23.0897 32.328 23.6297 32.796 23.8817 33.564C24.5657 32.844 25.2497 32.328 26.0417 32.328C27.3737 32.328 28.0217 33.216 28.0217 34.872V39H26.9297V35.016C26.9297 33.792 26.5457 33.276 25.7057 33.276C25.2017 33.276 24.6857 33.612 24.0737 34.272V39H22.9817V35.016C22.9817 33.792 22.5977 33.276 21.7577 33.276C21.2657 33.276 20.7137 33.612 20.1257 34.272V39H19.0337ZM32.7711 39.168C31.0311 39.168 29.6511 37.896 29.6511 35.76C29.6511 33.636 31.0791 32.328 32.5791 32.328C34.2351 32.328 35.1711 33.516 35.1711 35.388C35.1711 35.616 35.1591 35.844 35.1231 36.012H30.7311C30.8151 37.392 31.6551 38.292 32.9031 38.292C33.5271 38.292 34.0431 38.088 34.5231 37.764L34.9191 38.496C34.3431 38.868 33.6591 39.168 32.7711 39.168ZM30.7191 35.22H34.2111C34.2111 33.912 33.6231 33.204 32.5911 33.204C31.6791 33.204 30.8631 33.936 30.7191 35.22ZM36.8836 39V30.204H37.9996V33.888H42.1036V30.204H43.2076V39H42.1036V34.86H37.9996V39H36.8836ZM47.0181 39.168C45.9261 39.168 45.1101 38.484 45.1101 37.308C45.1101 35.892 46.3341 35.184 49.1061 34.872C49.1061 34.032 48.8421 33.228 47.7741 33.228C47.0061 33.228 46.3221 33.588 45.8181 33.936L45.3861 33.168C45.9861 32.784 46.8981 32.328 47.9421 32.328C49.5381 32.328 50.2101 33.384 50.2101 35.004V39H49.3101L49.2141 38.232H49.1661C48.5541 38.748 47.8221 39.168 47.0181 39.168ZM47.3181 38.28C47.9541 38.28 48.4821 37.98 49.1061 37.416V35.604C46.9101 35.856 46.1781 36.396 46.1781 37.236C46.1781 37.98 46.6821 38.28 47.3181 38.28ZM53.6838 39L51.3318 32.484H52.4598L53.6958 36.204C53.8878 36.84 54.0918 37.5 54.2958 38.112H54.3438C54.5478 37.5 54.7518 36.84 54.9438 36.204L56.1918 32.484H57.2598L54.9558 39H53.6838ZM61.0836 39.168C59.3436 39.168 57.9636 37.896 57.9636 35.76C57.9636 33.636 59.3916 32.328 60.8916 32.328C62.5476 32.328 63.4836 33.516 63.4836 35.388C63.4836 35.616 63.4716 35.844 63.4356 36.012H59.0436C59.1276 37.392 59.9676 38.292 61.2156 38.292C61.8396 38.292 62.3556 38.088 62.8356 37.764L63.2316 38.496C62.6556 38.868 61.9716 39.168 61.0836 39.168ZM59.0316 35.22H62.5236C62.5236 33.912 61.9356 33.204 60.9036 33.204C59.9916 33.204 59.1756 33.936 59.0316 35.22ZM65.1001 39V32.484H65.9881L66.0961 33.432H66.1321C66.7441 32.82 67.4161 32.328 68.3161 32.328C69.6841 32.328 70.3081 33.216 70.3081 34.872V39H69.2041V35.016C69.2041 33.792 68.8321 33.276 67.9681 33.276C67.3081 33.276 66.8401 33.624 66.1921 34.272V39H65.1001Z" fill="white"/>
</svg>
